# 3ds Max Wavefront OBJ Exporter v0.97b - (c)2007 guruware
# File Created: 17.01.2017 02:48:05

#
# object Box001
#

v  26.5356 6.8934 -31.9550
v  26.5356 51.1454 -31.9550
v  26.5356 51.1454 12.2970
v  26.5356 6.8934 12.2970
v  -28.7400 6.8934 -31.9550
v  -28.7400 6.8934 12.2970
v  -28.7400 51.1453 12.2970
v  -28.7400 51.1453 -31.9550
v  21.0238 1.3816 -31.9550
v  21.0238 1.3816 12.2970
v  -23.2282 1.3816 12.2970
v  -23.2281 1.3816 -31.9550
v  21.0238 6.8934 17.8088
v  21.0238 51.1453 17.8088
v  -23.2282 51.1453 17.8088
v  -23.2282 6.8934 17.8088
v  21.0238 56.6572 12.2970
v  21.0238 56.6572 -31.9550
v  -23.2282 56.6572 -31.9550
v  -23.2282 56.6572 12.2970
v  21.0238 51.1454 -37.4668
v  21.0238 6.8934 -37.4668
v  -23.2281 6.8934 -37.4668
v  -23.2282 51.1453 -37.4668
v  28.8978 -0.9806 20.1710
v  28.8978 59.0194 20.1710
v  21.0238 51.1453 20.1710
v  21.0238 6.8934 20.1710
v  -31.1022 59.0194 20.1710
v  -23.2281 51.1453 20.1710
v  -31.1022 -0.9806 20.1710
v  -23.2282 6.8934 20.1710
v  -31.1022 -0.9806 -39.8290
v  -31.1022 6.8934 12.2970
v  -31.1022 6.8934 -31.9550
v  -31.1022 51.1453 12.2970
v  -31.1022 59.0194 -39.8290
v  -31.1022 51.1453 -31.9550
v  28.8978 -0.9806 -39.8290
v  28.8978 59.0194 -39.8290
v  28.8978 51.1454 -31.9550
v  28.8978 6.8934 -31.9550
v  28.8978 51.1454 12.2970
v  28.8978 6.8934 12.2970
v  21.0238 6.8934 -39.8290
v  21.0238 51.1454 -39.8290
v  -23.2281 6.8934 -39.8290
v  -23.2282 51.1453 -39.8290
v  21.0238 -0.9806 12.2970
v  21.0238 -0.9806 -31.9550
v  -23.2282 -0.9806 12.2970
v  -23.2281 -0.9806 -31.9550
v  21.0238 59.0194 -31.9550
v  21.0238 59.0194 12.2970
v  -23.2282 59.0194 -31.9550
v  -23.2282 59.0194 12.2970
v  -30.7630 48.0321 15.5874
v  -30.7630 54.1349 9.9447
v  -30.7630 9.7573 -34.8676
v  -30.7630 3.6545 -29.2250
v  -28.8149 48.0321 15.5874
v  -28.8149 3.6545 -29.2249
v  -28.8149 9.7573 -34.8676
v  -28.8149 54.1349 9.9447
v  -26.1688 48.3315 -39.4644
v  -20.5261 54.4344 -39.4711
v  24.2862 10.0568 -39.5243
v  18.6435 3.9539 -39.5176
v  -26.1664 48.3315 -37.5164
v  18.6459 3.9539 -37.5695
v  24.2885 10.0568 -37.5762
v  -20.5238 54.4344 -37.5231
v  26.4146 48.0321 -34.9932
v  26.4146 3.6545 9.8191
v  26.4146 9.7573 15.4618
v  26.4146 54.1349 -29.3505
v  28.3627 48.0321 -34.9932
v  28.3627 54.1349 -29.3505
v  28.3627 9.7573 15.4618
v  28.3627 3.6545 9.8191
v  23.6882 48.3315 17.7131
v  -21.1241 3.9539 17.6600
v  -26.7667 10.0568 17.6533
v  18.0456 54.4344 17.7064
v  23.6859 48.3315 19.6612
v  18.0433 54.4344 19.6545
v  -26.7690 10.0568 19.6013
v  -21.1264 3.9539 19.6080
# 88 vertices

vn 1.0000 0.0000 0.0000
vn -1.0000 -0.0000 -0.0000
vn 0.0000 -1.0000 0.0000
vn -0.0000 -0.0000 1.0000
vn -0.0000 0.0000 1.0000
vn -0.0000 1.0000 -0.0000
vn 0.0000 -0.0000 -1.0000
vn 0.0000 0.0000 1.0000
vn -1.0000 -0.0000 0.0000
vn -1.0000 0.0000 -0.0000
vn 1.0000 -0.0000 0.0000
vn 1.0000 0.0000 -0.0000
vn 0.0000 0.0000 -1.0000
vn -0.0000 -0.0000 -1.0000
vn 1.0000 -0.0000 -0.0000
vn 0.0000 1.0000 -0.0000
vn 0.0000 -1.0000 -0.0000
vn 0.0000 -0.7105 0.7037
vn -0.0000 -0.7105 0.7037
vn 0.0000 -0.6789 -0.7342
vn -0.0000 -0.6789 -0.7342
vn -0.0000 0.7105 -0.7037
vn 0.0000 0.6789 0.7342
vn -0.0012 -0.0000 -1.0000
vn 0.0012 0.0000 1.0000
vn -0.7037 -0.7105 0.0008
vn 0.7342 -0.6789 -0.0009
vn 0.7037 0.7105 -0.0008
vn -0.7342 0.6789 0.0009
vn 0.0000 -0.7105 -0.7037
vn -0.0000 -0.6789 0.7342
vn -0.0000 0.7105 0.7037
vn 0.0000 0.6789 -0.7342
vn 0.0012 -0.0000 -1.0000
vn -0.0012 0.0000 1.0000
vn 0.7037 -0.7105 0.0008
vn -0.7342 -0.6789 -0.0009
vn -0.7037 0.7105 -0.0008
vn 0.7342 0.6789 0.0009
# 39 vertex normals

vt 0.2999 0.2277 0.0000
vt 0.2999 0.3848 0.0000
vt 0.1428 0.3848 0.0000
vt 0.1428 0.2277 0.0000
vt 0.1428 0.2273 0.0000
vt 0.2999 0.2273 0.0000
vt 0.2999 0.3843 0.0000
vt 0.1428 0.3843 0.0000
vt 0.1434 0.2279 0.0000
vt 0.2995 0.2279 0.0000
vt 0.2995 0.3840 0.0000
vt 0.1434 0.3840 0.0000
vt 0.2997 0.2272 0.0000
vt 0.2997 0.3842 0.0000
vt 0.1426 0.3842 0.0000
vt 0.1426 0.2272 0.0000
vt 0.2994 0.3839 0.0000
vt 0.1434 0.3839 0.0000
vt 0.2994 0.2279 0.0000
vt 0.1426 0.3845 0.0000
vt 0.1426 0.2275 0.0000
vt 0.2997 0.2275 0.0000
vt 0.2997 0.3845 0.0000
vt 0.1151 0.2284 0.0000
vt 0.1151 0.5617 0.0000
vt 0.0714 0.5180 0.0000
vt 0.0714 0.2721 0.0000
vt 0.3530 0.0544 0.0000
vt 0.0196 0.0544 0.0000
vt 0.0634 0.0107 0.0000
vt 0.3092 0.0107 0.0000
vt 0.0166 0.5566 0.0000
vt 0.0166 0.2272 0.0000
vt 0.0599 0.2704 0.0000
vt 0.0599 0.5134 0.0000
vt 0.0182 0.0601 0.0000
vt 0.3515 0.0601 0.0000
vt 0.3078 0.1039 0.0000
vt 0.0619 0.1039 0.0000
vt 0.0178 0.0604 0.0000
vt 0.3512 0.0604 0.0000
vt 0.3075 0.1042 0.0000
vt 0.0616 0.1042 0.0000
vt 0.1155 0.2284 0.0000
vt 0.1155 0.5617 0.0000
vt 0.0717 0.5180 0.0000
vt 0.0717 0.2721 0.0000
vt 0.3509 0.0558 0.0000
vt 0.0175 0.0558 0.0000
vt 0.0613 0.0121 0.0000
vt 0.3071 0.0121 0.0000
vt 0.0160 0.5575 0.0000
vt 0.0160 0.2241 0.0000
vt 0.0597 0.2678 0.0000
vt 0.0597 0.5137 0.0000
vt 0.1154 0.2283 0.0000
vt 0.1154 0.5617 0.0000
vt 0.3517 0.0549 0.0000
vt 0.0183 0.0549 0.0000
vt 0.0620 0.0112 0.0000
vt 0.3079 0.0112 0.0000
vt 0.0162 0.5575 0.0000
vt 0.0162 0.2242 0.0000
vt 0.0600 0.2679 0.0000
vt 0.0600 0.5138 0.0000
vt 0.0180 0.0611 0.0000
vt 0.3514 0.0611 0.0000
vt 0.3076 0.1049 0.0000
vt 0.0618 0.1049 0.0000
vt 0.0162 0.5574 0.0000
vt 0.0162 0.2241 0.0000
vt 0.0600 0.2678 0.0000
vt 0.0600 0.5137 0.0000
vt 0.0181 0.0599 0.0000
vt 0.3514 0.0599 0.0000
vt 0.3077 0.1037 0.0000
vt 0.0618 0.1037 0.0000
vt 0.1153 0.2288 0.0000
vt 0.1153 0.5621 0.0000
vt 0.0715 0.5184 0.0000
vt 0.0715 0.2725 0.0000
vt 0.3507 0.0554 0.0000
vt 0.0173 0.0554 0.0000
vt 0.0611 0.0117 0.0000
vt 0.3070 0.0117 0.0000
vt 0.2614 0.2117 0.0000
vt 0.0183 0.2117 0.0000
vt 0.0183 0.1987 0.0000
vt 0.2614 0.1987 0.0000
vt 0.2614 0.2113 0.0000
vt 0.0183 0.2113 0.0000
vt 0.0183 0.1983 0.0000
vt 0.2614 0.1983 0.0000
vt 0.2612 0.2118 0.0000
vt 0.0181 0.2118 0.0000
vt 0.0181 0.1989 0.0000
vt 0.2612 0.1989 0.0000
vt 0.2610 0.2118 0.0000
vt 0.0179 0.2118 0.0000
vt 0.0179 0.1989 0.0000
vt 0.2610 0.1989 0.0000
vt 0.0180 0.1987 0.0000
vt 0.2611 0.1987 0.0000
vt 0.2611 0.2117 0.0000
vt 0.0180 0.2117 0.0000
vt 0.0181 0.1986 0.0000
vt 0.2612 0.1986 0.0000
vt 0.2612 0.2116 0.0000
vt 0.0181 0.2116 0.0000
vt 0.0177 0.1984 0.0000
vt 0.2608 0.1984 0.0000
vt 0.2608 0.2114 0.0000
vt 0.0177 0.2114 0.0000
vt 0.0177 0.1987 0.0000
vt 0.2608 0.1987 0.0000
vt 0.2608 0.2117 0.0000
vt 0.0177 0.2117 0.0000
vt 0.0178 0.1981 0.0000
vt 0.2609 0.1981 0.0000
vt 0.2609 0.2111 0.0000
vt 0.0178 0.2111 0.0000
vt 0.0179 0.1986 0.0000
vt 0.2610 0.1986 0.0000
vt 0.2610 0.2115 0.0000
vt 0.0179 0.2115 0.0000
vt 0.0183 0.1982 0.0000
vt 0.2614 0.1982 0.0000
vt 0.2614 0.2112 0.0000
vt 0.0183 0.2112 0.0000
vt 0.2613 0.2110 0.0000
vt 0.0182 0.2110 0.0000
vt 0.0182 0.1981 0.0000
vt 0.2613 0.1981 0.0000
vt 0.2614 0.2111 0.0000
vt 0.0183 0.2111 0.0000
vt 0.0183 0.1981 0.0000
vt 0.2614 0.1981 0.0000
vt 0.0178 0.1983 0.0000
vt 0.2609 0.1983 0.0000
vt 0.2609 0.2113 0.0000
vt 0.0178 0.2113 0.0000
vt 0.2609 0.2117 0.0000
vt 0.0178 0.2117 0.0000
vt 0.0178 0.1988 0.0000
vt 0.2609 0.1988 0.0000
vt 0.2615 0.2113 0.0000
vt 0.0184 0.2113 0.0000
vt 0.0184 0.1983 0.0000
vt 0.2615 0.1983 0.0000
vt 0.3516 0.0545 0.0000
vt 0.0182 0.0545 0.0000
vt 0.0620 0.0108 0.0000
vt 0.3078 0.0108 0.0000
vt 0.0160 0.5577 0.0000
vt 0.0160 0.2243 0.0000
vt 0.0598 0.2680 0.0000
vt 0.0598 0.5139 0.0000
vt 0.0185 0.0609 0.0000
vt 0.3519 0.0609 0.0000
vt 0.3082 0.1046 0.0000
vt 0.0623 0.1046 0.0000
vt 0.1154 0.2287 0.0000
vt 0.1154 0.5621 0.0000
vt 0.0717 0.5183 0.0000
vt 0.0717 0.2724 0.0000
vt 0.3517 0.0544 0.0000
vt 0.0184 0.0544 0.0000
vt 0.0621 0.0107 0.0000
vt 0.3080 0.0107 0.0000
vt 0.0161 0.5575 0.0000
vt 0.0161 0.2241 0.0000
vt 0.0598 0.2679 0.0000
vt 0.0598 0.5137 0.0000
vt 0.0184 0.0607 0.0000
vt 0.3517 0.0607 0.0000
vt 0.3080 0.1044 0.0000
vt 0.0621 0.1044 0.0000
vt 0.1156 0.2290 0.0000
vt 0.1156 0.5624 0.0000
vt 0.0718 0.5186 0.0000
vt 0.0718 0.2727 0.0000
vt 0.3452 0.1891 0.0000
vt 0.0185 0.1891 0.0000
vt 0.0185 0.1717 0.0000
vt 0.3452 0.1717 0.0000
vt 0.0184 0.1717 0.0000
vt 0.3451 0.1717 0.0000
vt 0.3451 0.1891 0.0000
vt 0.0184 0.1891 0.0000
vt 0.3449 0.1893 0.0000
vt 0.0182 0.1893 0.0000
vt 0.0182 0.1719 0.0000
vt 0.3449 0.1719 0.0000
vt 0.0186 0.1720 0.0000
vt 0.3453 0.1720 0.0000
vt 0.3453 0.1894 0.0000
vt 0.0186 0.1894 0.0000
vt 0.0190 0.1716 0.0000
vt 0.3457 0.1716 0.0000
vt 0.3457 0.1890 0.0000
vt 0.0190 0.1890 0.0000
vt 0.3453 0.1890 0.0000
vt 0.0186 0.1890 0.0000
vt 0.0186 0.1716 0.0000
vt 0.3453 0.1716 0.0000
vt 0.3449 0.1890 0.0000
vt 0.0182 0.1890 0.0000
vt 0.0182 0.1716 0.0000
vt 0.3449 0.1716 0.0000
vt 0.4726 0.6974 0.0000
vt 0.4353 0.7377 0.0000
vt 0.1394 0.4446 0.0000
vt 0.1767 0.4043 0.0000
vt 0.2155 0.3024 0.0000
vt 0.2217 0.3024 0.0000
vt 0.2217 0.3086 0.0000
vt 0.2155 0.3086 0.0000
vt 0.0203 0.1303 0.0000
vt 0.2524 0.1303 0.0000
vt 0.2524 0.1404 0.0000
vt 0.0203 0.1404 0.0000
vt 0.2292 0.3129 0.0000
vt 0.2377 0.3129 0.0000
vt 0.2377 0.3214 0.0000
vt 0.2292 0.3214 0.0000
vt 0.0198 0.1488 0.0000
vt 0.3465 0.1488 0.0000
vt 0.3465 0.1589 0.0000
vt 0.0198 0.1589 0.0000
vt 0.2293 0.3129 0.0000
vt 0.2377 0.3213 0.0000
vt 0.2293 0.3213 0.0000
vt 0.4709 0.6973 0.0000
vt 0.4336 0.7376 0.0000
vt 0.1377 0.4445 0.0000
vt 0.1750 0.4042 0.0000
vt 0.2296 0.3133 0.0000
vt 0.2373 0.3133 0.0000
vt 0.2373 0.3210 0.0000
vt 0.2296 0.3210 0.0000
vt 0.3468 0.1587 0.0000
vt 0.0201 0.1592 0.0000
vt 0.0201 0.1491 0.0000
vt 0.3468 0.1486 0.0000
vt 0.2287 0.3123 0.0000
vt 0.2383 0.3123 0.0000
vt 0.2383 0.3219 0.0000
vt 0.2287 0.3219 0.0000
vt 0.0199 0.1488 0.0000
vt 0.3466 0.1494 0.0000
vt 0.3466 0.1594 0.0000
vt 0.0199 0.1589 0.0000
vt 0.2279 0.3115 0.0000
vt 0.2390 0.3115 0.0000
vt 0.2390 0.3227 0.0000
vt 0.2279 0.3227 0.0000
vt 0.2397 0.3109 0.0000
vt 0.2273 0.3109 0.0000
vt 0.2273 0.3233 0.0000
vt 0.2397 0.3233 0.0000
vt 0.4706 0.6976 0.0000
vt 0.4333 0.7379 0.0000
vt 0.1374 0.4448 0.0000
vt 0.1747 0.4045 0.0000
vt 0.3467 0.1487 0.0000
vt 0.3467 0.1588 0.0000
vt 0.0201 0.1588 0.0000
vt 0.0201 0.1487 0.0000
vt 0.2269 0.3106 0.0000
vt 0.2269 0.3236 0.0000
vt 0.2400 0.3236 0.0000
vt 0.2400 0.3106 0.0000
vt 0.2517 0.1303 0.0000
vt 0.2517 0.1404 0.0000
vt 0.0196 0.1404 0.0000
vt 0.0196 0.1303 0.0000
vt 0.2266 0.3102 0.0000
vt 0.2266 0.3240 0.0000
vt 0.2404 0.3240 0.0000
vt 0.2404 0.3102 0.0000
vt 0.2408 0.3098 0.0000
vt 0.2262 0.3098 0.0000
vt 0.2262 0.3244 0.0000
vt 0.2408 0.3244 0.0000
vt 0.4708 0.6974 0.0000
vt 0.4335 0.7377 0.0000
vt 0.1376 0.4447 0.0000
vt 0.1749 0.4044 0.0000
vt 0.0199 0.1588 0.0000
vt 0.0199 0.1487 0.0000
vt 0.3466 0.1493 0.0000
vt 0.3466 0.1593 0.0000
vt 0.2270 0.3107 0.0000
vt 0.2270 0.3235 0.0000
vt 0.2399 0.3235 0.0000
vt 0.2399 0.3107 0.0000
vt 0.3467 0.1483 0.0000
vt 0.3467 0.1584 0.0000
vt 0.0200 0.1589 0.0000
vt 0.0200 0.1488 0.0000
vt 0.2270 0.3106 0.0000
vt 0.2270 0.3236 0.0000
# 302 texture coords

g Box001
s 2
f 1/1/1 2/2/1 3/3/1 4/4/1 
s 4
f 5/5/2 6/6/2 7/7/2 8/8/2 
s 8
f 9/9/3 10/10/3 11/11/3 12/12/3 
s 16
f 13/13/4 14/14/5 15/15/4 16/16/4 
s 32
f 17/17/6 18/18/6 19/9/6 20/19/6 
s 64
f 21/20/7 22/21/7 23/22/7 24/23/7 
s off
f 25/24/8 26/25/8 27/26/8 28/27/8 
f 26/28/5 29/29/5 30/30/5 27/31/5 
f 29/32/5 31/33/5 32/34/5 30/35/5 
f 31/36/4 25/37/4 28/38/4 32/39/4 
f 33/40/2 31/41/2 34/42/2 35/43/2 
f 31/44/9 29/45/9 36/46/9 34/47/9 
f 29/48/10 37/49/10 38/50/10 36/51/10 
f 37/52/2 33/53/2 35/54/2 38/55/2 
f 39/56/1 40/57/1 41/46/1 42/47/1 
f 40/58/11 26/59/11 43/60/11 41/61/11 
f 26/62/12 25/63/12 44/64/12 43/65/12 
f 25/66/1 39/67/1 42/68/1 44/69/1 
f 40/70/13 39/71/13 45/72/13 46/73/13 
f 39/74/7 33/75/7 47/76/7 45/77/7 
f 33/78/14 37/79/14 48/80/14 47/81/14 
f 37/82/13 40/83/13 46/84/13 48/85/13 
f 42/86/8 41/87/8 2/88/8 1/89/8 
f 41/90/3 43/91/3 3/92/3 2/93/3 
f 43/94/14 44/95/14 4/96/14 3/97/14 
f 44/98/6 42/99/6 1/100/6 4/101/6 
f 35/102/6 34/103/6 6/104/6 5/105/6 
f 34/106/14 36/107/14 7/108/14 6/109/14 
f 36/110/3 38/111/3 8/112/3 7/113/3 
f 38/114/8 35/115/8 5/116/8 8/117/8 
f 28/118/9 27/119/9 14/120/9 13/121/9 
f 27/122/3 30/123/3 15/124/3 14/125/3 
f 30/126/15 32/127/15 16/128/15 15/129/15 
f 32/130/16 28/131/16 13/132/16 16/133/16 
f 46/134/9 45/135/9 22/136/9 21/137/9 
f 45/138/6 47/139/6 23/140/6 22/141/6 
f 47/142/1 48/143/1 24/144/1 23/145/1 
f 48/146/17 46/147/17 21/148/17 24/149/17 
f 39/150/3 25/151/3 49/152/3 50/153/3 
f 25/154/3 31/155/3 51/156/3 49/157/3 
f 31/158/3 33/159/3 52/160/3 51/161/3 
f 33/162/3 39/163/3 50/164/3 52/165/3 
f 26/166/6 40/167/6 53/168/6 54/169/6 
f 40/170/6 37/171/6 55/172/6 53/173/6 
f 37/174/6 29/175/6 56/176/6 55/177/6 
f 29/178/6 26/179/6 54/180/6 56/181/6 
f 50/182/2 49/183/2 10/184/2 9/185/2 
f 49/186/7 51/187/7 11/188/7 10/189/7 
f 51/186/1 52/187/1 12/188/1 11/189/1 
f 52/190/5 50/191/5 9/192/5 12/193/5 
f 54/194/2 53/195/2 18/196/2 17/197/2 
f 53/198/5 55/199/5 19/200/5 18/201/5 
f 55/202/1 56/203/1 20/204/1 19/205/1 
f 56/206/7 54/207/7 17/208/7 20/209/7 
s 2
f 57/210/9 58/211/9 59/212/9 60/213/9 
s 4
f 61/214/12 62/215/12 63/216/12 64/217/12 
s 8
f 57/218/18 60/219/19 62/220/19 61/221/18 
s 16
f 60/222/20 59/223/21 63/224/21 62/225/20 
s 32
f 59/226/22 58/227/22 64/228/22 63/229/22 
s 64
f 58/230/23 57/223/23 61/231/23 64/232/23 
s 2
f 65/233/24 66/234/24 67/235/24 68/236/24 
s 4
f 69/237/25 70/238/25 71/239/25 72/240/25 
s 8
f 65/241/26 68/242/26 70/243/26 69/244/26 
s 16
f 68/245/27 67/246/27 71/247/27 70/248/27 
s 32
f 67/249/28 66/250/28 72/251/28 71/252/28 
s 64
f 66/253/29 65/254/29 69/255/29 72/256/29 
s 2
f 73/257/2 74/258/2 75/259/2 76/260/2 
s 4
f 77/261/1 78/262/1 79/263/1 80/264/1 
s 8
f 73/265/30 77/266/30 80/267/30 74/268/30 
s 16
f 74/269/31 80/270/31 79/271/31 75/272/31 
s 32
f 75/273/32 79/274/32 78/275/32 76/276/32 
s 64
f 76/277/33 78/278/33 77/279/33 73/280/33 
s 2
f 81/281/34 82/282/34 83/283/34 84/284/34 
s 4
f 85/285/35 86/286/35 87/287/35 88/288/35 
s 8
f 81/289/36 85/290/36 88/291/36 82/292/36 
s 16
f 82/293/37 88/294/37 87/295/37 83/296/37 
s 32
f 83/297/38 87/298/38 86/299/38 84/300/38 
s 64
f 84/301/39 86/302/39 85/271/39 81/272/39 
# 78 polygons

