# This file uses centimeters as units for non-parametric coordinates.

mtllib shell.mtl
g default
v 0.123607 -0.380423 0.750000
v -0.323607 -0.235114 0.750000
v -0.323607 0.235114 0.750000
v 0.123607 0.380423 0.750000
v 0.400000 -0.000000 0.750000
v 0.000000 0.000000 -0.750000
v 0.123607 -0.380423 0.750000
v -0.323607 -0.235114 0.750000
v -0.323607 0.235114 0.750000
v 0.123607 0.380423 0.750000
v 0.400000 -0.000000 0.750000
v 0.000000 0.000000 -0.750000
vt 0.656388 0.012236
vt 1.001880 0.250000
vt 0.656388 0.487764
vt 0.097371 0.396946
vt 0.097371 0.103054
vt 0.000000 0.500000
vt 0.200000 0.500000
vt 0.500000 1.000000
vt 0.400000 0.500000
vt 0.600000 0.500000
vt 0.800000 0.500000
vt 1.000000 0.500000
vt 0.656388 0.012236
vt 1.001880 0.250000
vt 0.656388 0.487764
vt 0.097371 0.396946
vt 0.097371 0.103054
vt 0.000000 0.500000
vt 0.200000 0.500000
vt 0.500000 1.000000
vt 0.400000 0.500000
vt 0.600000 0.500000
vt 0.800000 0.500000
vt 1.000000 0.500000
vn 0.000000 -0.000000 1.000000
vn 0.000000 -0.000000 1.000000
vn 0.000000 -0.000000 1.000000
vn 0.000000 -0.000000 1.000000
vn 0.000000 -0.000000 1.000000
vn -0.302067 -0.929668 -0.210886
vn -0.302067 -0.929668 -0.210886
vn -0.302067 -0.929668 -0.210886
vn -0.977511 0.000000 -0.210886
vn -0.977511 0.000000 -0.210886
vn -0.977511 0.000000 -0.210886
vn -0.302067 0.929668 -0.210886
vn -0.302067 0.929668 -0.210886
vn -0.302067 0.929668 -0.210886
vn 0.790823 0.574566 -0.210886
vn 0.790823 0.574566 -0.210886
vn 0.790823 0.574566 -0.210886
vn 0.790823 -0.574566 -0.210886
vn 0.790823 -0.574566 -0.210886
vn 0.790823 -0.574566 -0.210886
vn 0.000000 -0.000000 1.000000
vn 0.000000 -0.000000 1.000000
vn 0.000000 -0.000000 1.000000
vn 0.000000 -0.000000 1.000000
vn 0.000000 -0.000000 1.000000
vn -0.302067 -0.929668 -0.210886
vn -0.302067 -0.929668 -0.210886
vn -0.302067 -0.929668 -0.210886
vn -0.977511 0.000000 -0.210886
vn -0.977511 0.000000 -0.210886
vn -0.977511 0.000000 -0.210886
vn -0.302067 0.929668 -0.210886
vn -0.302067 0.929668 -0.210886
vn -0.302067 0.929668 -0.210886
vn 0.790823 0.574566 -0.210886
vn 0.790823 0.574566 -0.210886
vn 0.790823 0.574566 -0.210886
vn 0.790823 -0.574566 -0.210886
vn 0.790823 -0.574566 -0.210886
vn 0.790823 -0.574566 -0.210886
s off
g pCone1
usemtl initialShadingGroup1
f 1/1/1 5/2/2 4/3/3 3/4/4 2/5/5
f 1/6/6 2/7/7 6/8/8
f 2/7/9 3/9/10 6/8/11
f 3/9/12 4/10/13 6/8/14
f 4/10/15 5/11/16 6/8/17
f 5/11/18 1/12/19 6/8/20
f 7/13/21 11/14/22 10/15/23 9/16/24 8/17/25
f 7/18/26 8/19/27 12/20/28
f 8/19/29 9/21/30 12/20/31
f 9/21/32 10/22/33 12/20/34
f 10/22/35 11/23/36 12/20/37
f 11/23/38 7/24/39 12/20/40
