# This file uses centimeters as units for non-parametric coordinates.

mtllib shell.mtl
g default
v 0.123607 -0.750000 -0.380423
v -0.323607 -0.750000 -0.235114
v -0.323607 -0.750000 0.235114
v 0.123607 -0.750000 0.380423
v 0.400000 -0.750000 0.000000
v 0.000000 0.750000 0.000000
vt 0.656388 0.012236
vt 0.097371 0.103054
vt 0.097371 0.396946
vt 0.656388 0.487764
vt 1.001880 0.250000
vt 0.000000 0.500000
vt 0.200000 0.500000
vt 0.400000 0.500000
vt 0.600000 0.500000
vt 0.800000 0.500000
vt 1.000000 0.500000
vt 0.500000 1.000000
vn 0.000000 -1.000000 0.000000
vn 0.000000 -1.000000 0.000000
vn 0.000000 -1.000000 0.000000
vn 0.000000 -1.000000 0.000000
vn 0.000000 -1.000000 0.000000
vn -0.302067 0.210886 -0.929668
vn -0.302067 0.210886 -0.929668
vn -0.302067 0.210886 -0.929668
vn -0.977511 0.210886 0.000000
vn -0.977511 0.210886 0.000000
vn -0.977511 0.210886 0.000000
vn -0.302067 0.210886 0.929668
vn -0.302067 0.210886 0.929668
vn -0.302067 0.210886 0.929668
vn 0.790823 0.210886 0.574566
vn 0.790823 0.210886 0.574566
vn 0.790823 0.210886 0.574566
vn 0.790823 0.210886 -0.574566
vn 0.790823 0.210886 -0.574566
vn 0.790823 0.210886 -0.574566
s off
g pCone1
usemtl initialShadingGroup
f 1/1/1 5/5/2 4/4/3 3/3/4 2/2/5
f 1/6/6 2/7/7 6/12/8
f 2/7/9 3/8/10 6/12/11
f 3/8/12 4/9/13 6/12/14
f 4/9/15 5/10/16 6/12/17
f 5/10/18 1/11/19 6/12/20
g default
v 0.123607 -0.750000 -0.380423
v -0.323607 -0.750000 -0.235114
v -0.323607 -0.750000 0.235114
v 0.123607 -0.750000 0.380423
v 0.400000 -0.750000 0.000000
v 0.000000 0.750000 0.000000
vt 0.656388 0.012236
vt 0.097371 0.103054
vt 0.097371 0.396946
vt 0.656388 0.487764
vt 1.001880 0.250000
vt 0.000000 0.500000
vt 0.200000 0.500000
vt 0.400000 0.500000
vt 0.600000 0.500000
vt 0.800000 0.500000
vt 1.000000 0.500000
vt 0.500000 1.000000
vn 0.000000 -1.000000 0.000000
vn 0.000000 -1.000000 0.000000
vn 0.000000 -1.000000 0.000000
vn 0.000000 -1.000000 0.000000
vn 0.000000 -1.000000 0.000000
vn -0.302067 0.210886 -0.929668
vn -0.302067 0.210886 -0.929668
vn -0.302067 0.210886 -0.929668
vn -0.977511 0.210886 0.000000
vn -0.977511 0.210886 0.000000
vn -0.977511 0.210886 0.000000
vn -0.302067 0.210886 0.929668
vn -0.302067 0.210886 0.929668
vn -0.302067 0.210886 0.929668
vn 0.790823 0.210886 0.574566
vn 0.790823 0.210886 0.574566
vn 0.790823 0.210886 0.574566
vn 0.790823 0.210886 -0.574566
vn 0.790823 0.210886 -0.574566
vn 0.790823 0.210886 -0.574566
s off
g pCone1
f 7/13/21 11/17/22 10/16/23 9/15/24 8/14/25
f 7/18/26 8/19/27 12/24/28
f 8/19/29 9/20/30 12/24/31
f 9/20/32 10/21/33 12/24/34
f 10/21/35 11/22/36 12/24/37
f 11/22/38 7/23/39 12/24/40
